# xmcd
#
# Track frame offsets: 
#        150
#        9667
#        23575
#        34442
#        45167
#        57852
#        70710
#        84755
#        95535
#        108277
#        119625
#        132067
#        144802
#        156507
#        168647
#        180202
#        193367
#        206059
#        219645
#        233562
#        246482
#        255242
#        268150
#
# Disc length: 3702 seconds
#
# Revision: 0
# Processed by: cddbd v1.5.2PL0 Copyright (c) Steve Scherf et al.
# Submitted via: ExactAudioCopy v1.0b3
#
DISCID=3c0e7417
DTITLE=Merle Haggard - The Legend Of Bonnie and Clyde, Pride In What I A
DTITLE=m
DYEAR=2002
DGENRE=Country
TTITLE0=The Legend Of Bonnie And Clyde
TTITLE1=Is This The Beginning Of The End?
TTITLE2=Love Has A Mind Of Its Own
TTITLE3=The Train Never Stops (At Our Town)
TTITLE4=Fool's Castle
TTITLE5=Will You Visit Me On Sundays?
TTITLE6=My Ramona
TTITLE7=I Started Loving You Again
TTITLE8=Money Tree
TTITLE9=You Still Have A Place In My Heart
TTITLE10=Because You Can't Be Mine
TTITLE11=I Take A Lot Of Pride In What I Am
TTITLE12=Who'll Buy The Wine
TTITLE13=The Day The Rains Came
TTITLE14=It Meant Goodbye To Me When You Said Hello To Him
TTITLE15=I Can't Hold Myself In Line
TTITLE16=I'm Bringin' Home Good News
TTITLE17=Keep Me From Cryin' Today
TTITLE18=I Just Want To Look At You One More Time 
TTITLE19=Somewhere On Skid Row
TTITLE20=I'm Free
TTITLE21=California Blues
TTITLE22=I Think We're Livin' In The Good Ole Days
EXTD=
EXTT0=
EXTT1=
EXTT2=
EXTT3=
EXTT4=
EXTT5=
EXTT6=
EXTT7=
EXTT8=
EXTT9=
EXTT10=
EXTT11=
EXTT12=
EXTT13=
EXTT14=
EXTT15=
EXTT16=
EXTT17=
EXTT18=
EXTT19=
EXTT20=
EXTT21=
EXTT22=
PLAYORDER=
